<svg data-v-423bf9ae="" xmlns="http://www.w3.org/2000/svg" viewBox="0 0 404 90" class="iconLeft"><!----><!----><!----><g data-v-423bf9ae="" id="ef8e424a-7649-47c9-a768-46fb88e44875" fill="black" transform="matrix(5.89390945003159,0,0,5.89390945003159,112.86944376960767,3.742632682979938)"><path d="M1.21 12.07L1.21 1.93L2.23 1.93L2.23 6.19L7.39 6.19L7.39 1.93L8.40 1.93L8.40 12.07L7.39 12.07L7.39 7.18L2.23 7.18L2.23 12.07L1.21 12.07ZM14.23 4.22L14.23 4.22L14.23 4.22Q15.96 4.22 17.10 5.47L17.10 5.47L17.10 5.47Q18.14 6.62 18.14 8.18L18.14 8.18L18.14 8.18Q18.14 9.75 17.04 10.92L17.04 10.92L17.04 10.92Q15.95 12.09 14.23 12.09L14.23 12.09L14.23 12.09Q12.51 12.09 11.42 10.92L11.42 10.92L11.42 10.92Q10.33 9.75 10.33 8.18L10.33 8.18L10.33 8.18Q10.33 6.62 11.36 5.48L11.36 5.48L11.36 5.48Q12.50 4.22 14.23 4.22ZM14.23 5.16L14.23 5.16L14.23 5.16Q13.04 5.16 12.17 6.05L12.17 6.05L12.17 6.05Q11.31 6.94 11.31 8.20L11.31 8.20L11.31 8.20Q11.31 9.01 11.71 9.72L11.71 9.72L11.71 9.72Q12.10 10.42 12.77 10.80L12.77 10.80L12.77 10.80Q13.44 11.18 14.23 11.18L14.23 11.18L14.23 11.18Q15.04 11.18 15.71 10.80L15.71 10.80L15.71 10.80Q16.37 10.42 16.76 9.72L16.76 9.72L16.76 9.72Q17.15 9.01 17.15 8.20L17.15 8.20L17.15 8.20Q17.15 6.94 16.29 6.05L16.29 6.05L16.29 6.05Q15.43 5.16 14.23 5.16ZM20.58 12.07L19.61 12.07L21.05 1.93L21.21 1.93L25.33 10.25L29.41 1.93L29.57 1.93L31.04 12.07L30.03 12.07L29.04 4.82L25.46 12.07L25.20 12.07L21.57 4.77L20.58 12.07ZM33.02 12.07L33.02 1.93L38.83 1.93L38.83 2.93L34.04 2.93L34.04 6.10L36.96 6.10L36.96 7.09L34.04 7.09L34.04 11.07L38.79 11.07L38.79 12.07L33.02 12.07ZM44.06 12.04L40.83 12.04L40.83 1.91L42.93 1.91L42.93 1.91Q45.21 1.91 46.24 2.28L46.24 2.28L46.24 2.28Q47.71 2.79 48.54 4.06L48.54 4.06L48.54 4.06Q49.37 5.34 49.37 7.10L49.37 7.10L49.37 7.10Q49.37 8.62 48.71 9.78L48.71 9.78L48.71 9.78Q48.05 10.94 47.00 11.49L47.00 11.49L47.00 11.49Q45.95 12.04 44.06 12.04L44.06 12.04ZM41.80 2.89L41.80 11.08L42.97 11.08L42.97 11.08Q45.07 11.08 45.89 10.82L45.89 10.82L45.89 10.82Q47.03 10.45 47.69 9.48L47.69 9.48L47.69 9.48Q48.34 8.52 48.34 7.12L48.34 7.12L48.34 7.12Q48.34 5.65 47.64 4.61L47.64 4.61L47.64 4.61Q46.93 3.57 45.66 3.19L45.66 3.19L45.66 3.19Q44.70 2.89 42.52 2.89L42.52 2.89L41.80 2.89Z"></path></g><!----><g data-v-423bf9ae="" id="1f06239e-1305-4129-aff3-6088fba3519e" transform="matrix(1.111110692488798,0,0,1.111110692488798,-5.601978602476251,-10.055551578643573)" stroke="none" fill="black"><path d="M93.398 77.222H7.429c-1.113 0-2.016-.892-2.016-1.992V11.491c0-1.099.902-1.991 2.016-1.991h85.97c1.113 0 2.015.893 2.015 1.991v63.738a2.005 2.005 0 0 1-2.016 1.993zM9.443 73.237h81.939V13.483H9.443v59.754z"></path><path d="M83.995 67.927H16.831a2.004 2.004 0 0 1-2.015-1.993V20.786c0-1.099.902-1.991 2.015-1.991h67.164c1.112 0 2.016.893 2.016 1.991v45.147a2.006 2.006 0 0 1-2.016 1.994zm-65.149-3.985H81.98V22.778H18.846v41.164zM59.815 90.5H41.011c-1.112 0-2.015-.893-2.015-1.991v-13.28c0-1.1.902-1.992 2.015-1.992h18.805c1.113 0 2.016.893 2.016 1.992v13.279a2.006 2.006 0 0 1-2.017 1.992zm-16.79-3.983H57.8v-9.295H43.025v9.295z"></path><path d="M16.831 86.517h67.164V90.5H16.831zM55.787 59.959H45.039c-1.111 0-2.014-.892-2.014-1.991v-7.304h-7.389c-1.111 0-2.015-.892-2.015-1.992V38.049c0-1.099.903-1.991 2.015-1.991h7.389v-7.304c0-1.1.902-1.991 2.014-1.991h10.748c1.111 0 2.014.892 2.014 1.991v7.304h7.389c1.111 0 2.015.893 2.015 1.991v10.623a2.004 2.004 0 0 1-2.015 1.992h-7.389v7.304c0 1.099-.903 1.991-2.014 1.991zm-8.732-3.983h6.718v-7.304c0-1.1.901-1.991 2.015-1.991h7.388v-6.64h-7.388a2.004 2.004 0 0 1-2.015-1.992v-7.303h-6.718v7.303c0 1.1-.902 1.992-2.016 1.992h-7.388v6.64h7.388c1.113 0 2.016.892 2.016 1.991v7.304z"></path></g><!----></svg>